<?xml version="1.0" standalone="no"?>
<!DOCTYPE svg PUBLIC "-//W3C//DTD SVG 1.1//EN" "http://www.w3.org/Graphics/SVG/1.1/DTD/svg11.dtd" >
<svg xmlns="http://www.w3.org/2000/svg">
<metadata>
This is a custom SVG webfont generated by Font Squirrel.
Copyright   : C 2010 dot colon
Designer    : arro
</metadata>
<defs>
<font id="VegurBold" horiz-adv-x="1142" >
<font-face units-per-em="2048" ascent="1577" descent="-471" />
<missing-glyph horiz-adv-x="401" />
<glyph unicode=" "  horiz-adv-x="401" />
<glyph unicode="&#x09;" horiz-adv-x="401" />
<glyph unicode="&#xa0;" horiz-adv-x="401" />
<glyph unicode="!" horiz-adv-x="593" d="M135 141.5q0 67.5 47 114.5t115 47t115 -47t47 -114.5t-47 -114.5t-115 -47t-115 47t-47 114.5zM166 1389h262l-16 -983h-230z" />
<glyph unicode="&#x22;" horiz-adv-x="823" d="M90 1368q-2 35 25.5 54.5t81.5 19.5h151l-47 -576h-201zM492 1368q-2 35 25.5 54.5t80.5 19.5h152l-48 -576h-200z" />
<glyph unicode="#" horiz-adv-x="1105" d="M70 410v151h206l37 223h-186v152h211l55 340h170l-55 -340h174l55 340h170l-55 -340h184v-152h-209l-34 -223h186v-151h-213l-53 -338h-172l55 338h-174l-53 -338h-172l55 338h-182zM449 561h172l36 223h-174z" />
<glyph unicode="$" d="M156 141l26 213q182 -82 344 -82q80 0 127 36t47 100q0 61 -45 97t-147 64q-166 47 -250 130t-84 221q0 125 76 212t207 123v236h200v-219q158 -12 271 -74l-29 -213q-143 74 -283 74q-70 0 -114.5 -27.5t-44.5 -73.5q0 -57 36.5 -87.5t135.5 -59.5q178 -51 266 -137 t88 -228q0 -147 -91 -246.5t-247 -129.5v-213h-201v204q-169 14 -288 80z" />
<glyph unicode="%" horiz-adv-x="1740" d="M104 1020q0 154 99.5 251t247 97t247 -97t99.5 -251t-99.5 -251t-247 -97t-247 97t-99.5 251zM299 -41l942 1450h201l-942 -1450h-201zM334 1020q0 -70 33.5 -109t83 -39t83 39t33.5 109t-33.5 108.5t-83 38.5t-83 -38.5t-33.5 -108.5zM944 327.5q0 153.5 99.5 251 t247 97.5t246.5 -97.5t99 -251t-99 -250.5t-246.5 -97t-247 97t-99.5 250.5zM1174 327.5q0 -69.5 33.5 -108.5t82.5 -39t83 39t34 108.5t-34 108.5t-83 39t-82.5 -39t-33.5 -108.5z" />
<glyph unicode="&#x26;" horiz-adv-x="1484" d="M74 383q0 135 82 231.5t247 186.5v4q-154 141 -153 297q0 137 114.5 222t280.5 85q164 0 271.5 -91t107.5 -218q0 -201 -246 -338v-4l258 -301h4q63 84 70 239h272q-12 -262 -172 -436l230 -260h-369l-70 90h-4q-168 -111 -407 -110q-233 0 -374.5 108.5t-141.5 294.5z M369 397q0 -88 70.5 -143t178.5 -55q135 0 230 67v4l-293 361h-4q-88 -47 -135 -99.5t-47 -134.5zM537 1092q0 -84 92 -156h4q104 63 104 147q0 51 -27.5 82t-72.5 31q-43 0 -71.5 -29.5t-28.5 -74.5z" />
<glyph unicode="'" horiz-adv-x="421" d="M90 1368q-2 35 25.5 54.5t81.5 19.5h151l-47 -576h-201z" />
<glyph unicode="(" horiz-adv-x="636" d="M141 628.5q0 227.5 63.5 445.5t157.5 376h201q-176 -410 -176 -821.5t176 -821.5h-201q-94 158 -157.5 376t-63.5 445.5z" />
<glyph unicode=")" horiz-adv-x="636" d="M74 -193q176 410 176 821.5t-176 821.5h200q94 -158 158 -376t64 -445.5t-63.5 -445.5t-158.5 -376h-200z" />
<glyph unicode="*" horiz-adv-x="1052" d="M94 987l70 209l287 -137h8l-43 321h221l-43 -321h8l287 137l69 -209l-317 -61v-4l221 -232l-180 -131l-154 281h-4l-153 -281l-181 131l222 232v4z" />
<glyph unicode="+" horiz-adv-x="1216" d="M92 424v201h402v424h229v-424h401v-201h-401v-424h-229v424h-402z" />
<glyph unicode="," horiz-adv-x="534" d="M-18 -338q92 287 141 494q25 100 147 100h170q-88 -268 -215 -567z" />
<glyph unicode="-" horiz-adv-x="802" d="M119 424v201h565v-201h-565z" />
<glyph unicode="." horiz-adv-x="512" d="M94 141.5q0 67.5 47 114.5t115 47t115 -47t47 -114.5t-47 -114.5t-115 -47t-115 47t-47 114.5z" />
<glyph unicode="/" horiz-adv-x="870" d="M-10 -76l641 1510h250l-641 -1510h-250z" />
<glyph unicode="0" d="M41 673.5q0 317.5 143.5 506t387 188.5t387 -188.5t143.5 -506t-143.5 -505.5t-387 -188t-387 188t-143.5 505.5zM336 674q0 -246 56.5 -360.5t179 -114.5t179 114.5t56.5 360.5t-56.5 360.5t-179 114.5t-179 -114.5t-56.5 -360.5z" />
<glyph unicode="1" d="M207 1151l455 197h137v-1348h-275v1034l-291 -96z" />
<glyph unicode="2" d="M119 0v215l231 236q244 250 314.5 342t70.5 178q0 80 -57 129t-164 49q-129 0 -289 -64l-28 218q184 66 372 65q207 0 334 -101.5t127 -265.5q0 -147 -73.5 -261.5t-272.5 -305.5l-217 -211v-4h567v-219h-915z" />
<glyph unicode="3" d="M90 59l29 217q168 -78 340 -77q119 0 197.5 45t78.5 133q0 174 -311 190v213q123 2 196.5 53.5t73.5 139.5q0 82 -62.5 129t-158.5 47q-137 0 -270 -55l-27 213q201 61 365 61q213 0 330.5 -86t117.5 -233q0 -131 -88 -214t-217 -110v-4q156 -25 251 -109t95 -219 q0 -190 -166 -301.5t-399 -111.5q-228 -1 -375 79z" />
<glyph unicode="4" d="M20 276v224l510 848h402v-852h203v-220h-203v-276h-275v276h-637zM309 496h348v323q0 166 11 297h-4q-80 -182 -355 -616v-4z" />
<glyph unicode="5" d="M109 55l28 217q182 -74 352 -73q121 0 194 60t73 165q0 92 -56.5 151.5t-160.5 59.5q-80 0 -142 -43l-241 6l24 750h809v-220h-557l-12 -305h6q63 39 164 39q211 0 336 -113.5t125 -299.5q0 -227 -164 -348t-402 -121q-218 -1 -376 75z" />
<glyph unicode="6" d="M88 522q0 348 229.5 587t561.5 255l28 -217q-197 -16 -332 -120.5t-188 -276.5h4q35 43 104.5 67.5t135.5 24.5q190 0 309 -116t119 -288q0 -217 -145.5 -340t-354.5 -123q-203 0 -337 141.5t-134 405.5zM383 473q0 -123 55.5 -198.5t139.5 -75.5q80 0 133 59t53 150 q0 106 -52.5 165.5t-144.5 59.5q-72 0 -128 -45t-56 -115z" />
<glyph unicode="7" d="M125 1128v220h934v-222l-545 -1126h-283l551 1124v4h-657z" />
<glyph unicode="8" d="M86 356q0 227 287 334v4q-115 61 -171.5 135t-56.5 181q0 145 122 251.5t320.5 106.5t317.5 -99.5t119 -242.5q0 -195 -240 -313v-4q270 -127 271 -332q0 -193 -143.5 -295t-344.5 -102q-211 0 -346 100t-135 276zM377 397q0 -86 54 -142t140 -56t139.5 50t53.5 128 q0 76 -45 128t-152 97q-96 -35 -143 -82t-47 -123zM432 1006q0 -115 156 -195q152 74 151 199q0 63 -44 105t-113 42q-68 0 -109 -45t-41 -106z" />
<glyph unicode="9" d="M84 901q0 217 145.5 340t354.5 123q203 0 337 -141.5t134 -405.5q0 -348 -229.5 -586.5t-561.5 -255.5l-28 218q197 16 331.5 120.5t188.5 276.5h-4q-35 -43 -104.5 -67.5t-135.5 -24.5q-190 0 -309 115.5t-119 287.5zM379 932q0 -106 52 -165.5t144 -59.5q72 0 128.5 45 t56.5 114q0 123 -55.5 199t-139.5 76q-80 0 -133 -59.5t-53 -149.5z" />
<glyph unicode=":" horiz-adv-x="512" d="M94 141.5q0 67.5 47 114.5t115 47t115 -47t47 -114.5t-47 -114.5t-115 -47t-115 47t-47 114.5zM94 850q0 68 47 115t115 47t115 -47t47 -115t-47 -115t-115 -47t-115 47t-47 115z" />
<glyph unicode=";" horiz-adv-x="552" d="M-18 -338q92 287 141 494q25 100 147 100h170q-88 -268 -215 -567zM135 850q0 68 47 115t115 47t115 -47t47 -115t-47 -115t-115 -47t-115 47t-47 115z" />
<glyph unicode="&#x3c;" horiz-adv-x="962" d="M63 412v258l791 401v-258l-571 -268v-6l571 -271v-258z" />
<glyph unicode="=" horiz-adv-x="1361" d="M141 205v201h1080v-201h-1080zM141 643v201h1080v-201h-1080z" />
<glyph unicode="&#x3e;" horiz-adv-x="962" d="M109 10v258l571 271v6l-571 268v258l790 -401v-258z" />
<glyph unicode="?" horiz-adv-x="905" d="M53 1337q158 72 367 72q184 0 297.5 -96t113.5 -248q0 -109 -49 -190.5t-184 -235.5q-57 -66 -77.5 -109t-20.5 -94v-30h-267v32q0 96 35 172t123 168q145 152 146 266q0 61 -49.5 103.5t-147.5 42.5q-141 0 -258 -66zM209 141.5q0 -67.5 47 -114.5t114.5 -47t114.5 47 t47 114.5t-47 114.5t-114.5 47t-114.5 -47t-47 -114.5z" />
<glyph unicode="@" horiz-adv-x="1841" d="M113 367q0 254 131 452.5t342 301t458 102.5q272 0 447.5 -171t175.5 -417q0 -250 -121 -391.5t-307 -141.5q-203 0 -242 142h-4q-76 -156 -237 -156q-117 0 -195 84t-78 211q0 233 140.5 366.5t382.5 133.5q162 0 284 -58l-61 -407q-4 -29 -4 -53q0 -113 96 -113 q76 0 127 96t51 234q0 225 -133 357t-393 132q-276 0 -484 -185.5t-208 -469.5q0 -256 146 -404.5t396 -148.5q207 0 400 104l18 -141q-213 -115 -489 -115q-258 0 -448.5 184.5t-190.5 471.5zM729 418q0 -61 31 -98t76 -37q143 0 176 225l24 170q-31 10 -71 10 q-102 0 -169 -69.5t-67 -200.5z" />
<glyph unicode="A" horiz-adv-x="1294" d="M29 0l479 1389h283l479 -1389h-291l-129 408h-420l-127 -408h-274zM494 627h292q-92 289 -143 508h-6q-51 -219 -143 -508z" />
<glyph unicode="B" horiz-adv-x="1169" d="M135 18v1350q246 31 410 31q238 0 371 -96.5t133 -251.5q0 -106 -67 -186.5t-171 -116.5v-5q274 -84 274 -315q0 -211 -156.5 -324.5t-416.5 -113.5q-168 -1 -377 28zM410 817h135q205 0 205 180q0 182 -201 183q-76 0 -139 -11v-352zM410 217q74 -8 151 -8 q109 0 169.5 48t60.5 142q0 207 -240 207h-141v-389z" />
<glyph unicode="C" horiz-adv-x="1280" d="M57 682q0 334 221.5 530.5t546.5 196.5q244 0 410 -66l-29 -219q-170 66 -358 66q-229 0 -362.5 -122t-133.5 -374q0 -240 131 -367.5t344 -127.5q193 0 363 69l29 -221q-170 -68 -447 -67q-309 0 -512 182t-203 520z" />
<glyph unicode="D" horiz-adv-x="1460" d="M135 16v1350q225 33 447 33q383 0 602 -165t219 -484q0 -367 -237.5 -563.5t-610.5 -196.5q-246 -1 -420 26zM410 215q98 -6 204 -6q213 0 353.5 125t140.5 375q0 227 -136 349t-374 122q-96 0 -188 -13v-952z" />
<glyph unicode="E" horiz-adv-x="1019" d="M135 0v1389h809v-220h-534v-342h464v-219h-464v-389h553v-219h-828z" />
<glyph unicode="F" horiz-adv-x="962" d="M135 0v1389h809v-220h-534v-364h464v-219h-464v-586h-275z" />
<glyph unicode="G" horiz-adv-x="1378" d="M57 672q0 229 106.5 399t277.5 254t378 84q244 0 410 -66l-29 -219q-182 66 -358 66q-225 0 -357.5 -126t-132.5 -370q0 -242 121 -368.5t315 -126.5q133 0 207 26v310h-250v219h525v-693q-207 -82 -498 -81q-313 0 -514 175t-201 517z" />
<glyph unicode="H" horiz-adv-x="1447" d="M135 0v1389h275v-564h628v564h275v-1389h-275v606h-628v-606h-275z" />
<glyph unicode="I" horiz-adv-x="544" d="M135 0v1389h275v-1389h-275z" />
<glyph unicode="J" horiz-adv-x="780" d="M-33 8l29 213q76 -23 166 -22q137 0 188 68.5t51 207.5v914h275v-902q0 -508 -512 -507q-111 -1 -197 28z" />
<glyph unicode="K" horiz-adv-x="1218" d="M135 0v1389h275v-568h8l459 568h344l-590 -652l635 -737h-377l-432 545h-6l-41 -49v-496h-275z" />
<glyph unicode="L" horiz-adv-x="1050" d="M135 0v1389h275v-1178h624v-211h-899z" />
<glyph unicode="M" horiz-adv-x="1742" d="M129 0l47 1386h316l241 -669q72 -203 129 -447h6q57 244 129 447l246 669h316l49 -1386h-275l-16 717v40q0 158 14 287h-6q-27 -135 -92 -327l-234 -676h-286l-228 676q-70 193 -90 319h-6q14 -112 14 -235q0 -41 -2 -84l-14 -717h-258z" />
<glyph unicode="N" horiz-adv-x="1466" d="M129 0v1389h389l391 -734q96 -176 178 -387h7q-14 182 -15 387v734h258v-1389h-387l-405 754q-80 147 -166 364h-6q14 -252 14 -364v-754h-258z" />
<glyph unicode="O" horiz-adv-x="1540" d="M57 694q0 305 202 509t511 204t511 -204t202 -509t-202 -509.5t-511 -204.5t-511 204.5t-202 509.5zM358 694.5q0 -237.5 115 -366.5t297 -129t297 129t115 366.5t-114 365.5t-298 128t-298 -128t-114 -365.5z" />
<glyph unicode="P" horiz-adv-x="1093" d="M135 1364q195 35 400 35q254 0 393 -112.5t139 -305.5q0 -236 -156.5 -364t-388.5 -128q-78 0 -112 5v-494h-275v1364zM410 719q37 -2 108 -2q113 0 183.5 57t70.5 176q0 113 -63.5 171.5t-171.5 58.5q-68 0 -127 -9v-452z" />
<glyph unicode="Q" horiz-adv-x="1540" d="M57 694q0 305 202 509t511 204t511 -204t202 -509q0 -221 -114 -397t-304 -258l78 -291l-266 -65l-72 301q-20 -4 -35 -4q-309 0 -511 204.5t-202 509.5zM358 694.5q0 -237.5 115 -366.5t297 -129t297 129t115 366.5t-114 365.5t-298 128t-298 -128t-114 -365.5z" />
<glyph unicode="R" d="M135 0v1364q188 33 420 33q256 0 391 -101.5t135 -263.5q0 -131 -76.5 -215t-189.5 -121v-4q76 -31 120 -98.5t71 -190.5q41 -182 110 -403h-303q-53 199 -90 381q-20 96 -60 138t-120 42h-133v-561h-275zM410 772h129q109 0 168 53.5t59 153.5q0 199 -213 199 q-102 0 -143 -9v-397z" />
<glyph unicode="S" horiz-adv-x="1116" d="M92 33l29 221q180 -55 352 -55q119 0 190.5 48t71.5 136q0 82 -51 129t-158 76q-180 51 -280.5 145t-100.5 266q0 197 145.5 303.5t354.5 106.5q207 0 330 -49l-29 -217q-127 47 -284 47q-104 0 -167 -41t-63 -119q0 -82 53.5 -126t161.5 -75q186 -53 280.5 -143 t94.5 -258q0 -213 -162 -330.5t-403 -117.5q-215 0 -365 53z" />
<glyph unicode="T" horiz-adv-x="1208" d="M31 1169v220h1147v-220h-439v-1169h-274v1169h-434z" />
<glyph unicode="U" horiz-adv-x="1316" d="M129 438v951h274v-930q0 -127 75 -194.5t186 -67.5q117 0 194.5 64.5t77.5 197.5v930h258v-912q0 -238 -151.5 -367.5t-383.5 -129.5q-227 0 -378.5 123.5t-151.5 334.5z" />
<glyph unicode="V" horiz-adv-x="1214" d="M-8 1389h291l182 -572q100 -322 153 -557h7q72 305 153 557l180 572h275l-479 -1389h-283z" />
<glyph unicode="W" horiz-adv-x="1865" d="M0 1389h287l176 -662q76 -256 90 -463h6q14 197 82 461l168 664h274l168 -662q63 -256 82 -461h6q14 188 88 461l179 662h270l-416 -1389h-276l-166 662q-53 221 -78 452h-6q-23 -233 -76 -450l-168 -664h-274z" />
<glyph unicode="X" horiz-adv-x="1124" d="M-8 0l420 702l-410 687h324l237 -447h4l240 447h303l-399 -670l430 -719h-324l-260 481h-4l-258 -481h-303z" />
<glyph unicode="Y" horiz-adv-x="1146" d="M-8 1389h315l279 -562h4l280 562h295l-444 -793v-596h-275v575z" />
<glyph unicode="Z" horiz-adv-x="1130" d="M49 0v229l688 945v4h-622v211h934v-228l-689 -946v-4h725v-211h-1036z" />
<glyph unicode="[" horiz-adv-x="712" d="M168 -178v1612h487v-201h-258v-1210h258v-201h-487z" />
<glyph unicode="\" horiz-adv-x="870" d="M-10 1434h250l641 -1510h-250z" />
<glyph unicode="]" horiz-adv-x="712" d="M57 23h258v1210h-258v201h488v-1612h-488v201z" />
<glyph unicode="^" horiz-adv-x="1165" d="M94 582l361 798h256l360 -798h-252l-233 557h-6l-236 -557h-250z" />
<glyph unicode="_" horiz-adv-x="1185" d="M53 -92h1080v-201h-1080v201z" />
<glyph unicode="`" horiz-adv-x="641" d="M47 1442h191q43 0 67 -41q68 -119 201 -324l-209 -10q-123 154 -250 375z" />
<glyph unicode="a" horiz-adv-x="1054" d="M61 311q0 164 133.5 250t335.5 86q43 0 129 -10v18q0 74 -52 114t-146 40q-125 0 -262 -59l-29 204q166 66 350 66q207 0 310.5 -93t103.5 -263v-664h-268l-7 125h-4q-90 -145 -272 -145q-135 0 -228.5 93t-93.5 238zM348 332q0 -63 36 -102.5t99 -39.5q176 0 176 267v16 q-57 8 -110 8q-201 1 -201 -149z" />
<glyph unicode="b" horiz-adv-x="1234" d="M135 0v1475h275v-592h4q74 74 146.5 105.5t178.5 31.5q201 0 315.5 -140.5t114.5 -361.5q0 -229 -122.5 -383.5t-319.5 -154.5q-104 0 -176 31.5t-137 105.5h-4l-7 -117h-268zM410 477q0 -133 61 -210t168 -77q119 0 180.5 83t61.5 228.5t-62.5 226.5t-183.5 81 q-109 0 -167 -78t-58 -209v-45z" />
<glyph unicode="c" horiz-adv-x="970" d="M66 473q0 262 162.5 404.5t400.5 142.5q184 0 291 -59l-29 -205q-111 53 -242 53q-139 0 -215 -81t-76 -232.5t80 -228.5t207 -77q129 0 236 52l28 -205q-145 -57 -338 -57q-229 0 -367 132t-138 361z" />
<glyph unicode="d" horiz-adv-x="1234" d="M66 481q0 229 122.5 384t319.5 155q102 0 174 -33t139 -104h4v592h275v-1475h-269l-6 117h-4q-74 -74 -147.5 -105.5t-177.5 -31.5q-201 0 -315.5 140t-114.5 361zM354 497.5q0 -145.5 62.5 -226.5t183.5 -81q109 0 167 78t58 209v45q0 133 -61.5 210t-167.5 77 q-119 0 -180.5 -83t-61.5 -228.5z" />
<glyph unicode="e" horiz-adv-x="1069" d="M66 473q0 248 141 397.5t377 149.5q190 0 301.5 -133t111.5 -328q0 -82 -12 -137h-649q8 -115 82 -173.5t200 -58.5q135 0 281 60l29 -205q-147 -66 -344 -65q-238 0 -378 128.5t-140 364.5zM346 610h387q-4 84 -49 141.5t-129 57.5q-80 0 -136.5 -55.5t-72.5 -143.5z " />
<glyph unicode="f" horiz-adv-x="768" d="M47 788v211h166v23q0 221 127 347t336 126q109 0 176 -29l-29 -200q-47 18 -110 18q-102 0 -164 -60.5t-62 -183.5v-41h246v-211h-246v-788h-274v788h-166z" />
<glyph unicode="g" horiz-adv-x="1230" d="M66 489q0 227 122.5 379t315.5 152q102 0 174 -33t139 -104h4l6 116h269v-852q0 -274 -160 -421.5t-434 -147.5q-199 0 -357 72l29 209q162 -70 315 -70q332 0 332 305v35h-4q-74 -74 -147.5 -105.5t-177.5 -31.5q-195 0 -310.5 139t-115.5 358zM354 505.5 q0 -143.5 62.5 -223t179.5 -79.5q109 0 167 77.5t58 208.5v33q0 133 -61.5 210t-167.5 77q-115 0 -176.5 -80t-61.5 -223.5z" />
<glyph unicode="h" horiz-adv-x="1167" d="M135 0v1475h275v-603h4q111 147 297 148q340 0 340 -381v-639h-275v600q0 201 -158 201q-209 0 -208 -289v-512h-275z" />
<glyph unicode="i" horiz-adv-x="544" d="M115 1243.5q0 65.5 46 111.5t111 46q63 0 110.5 -47t47.5 -111q0 -66 -46 -112t-111.5 -46t-111.5 46.5t-46 112zM135 0v999h275v-999h-275z" />
<glyph unicode="j" horiz-adv-x="573" d="M-125 -213q145 18 217 80.5t72 200.5v931h274v-919q0 -254 -142 -368.5t-392 -133.5zM143 1243.5q0 65.5 46.5 111.5t111.5 46q63 0 110.5 -47t47.5 -111q0 -66 -46 -112t-111.5 -46t-112 46.5t-46.5 112z" />
<glyph unicode="k" horiz-adv-x="1067" d="M135 0v1475h275v-861h6q47 66 98 129l205 256h360l-417 -421l448 -578h-346l-289 381h-6l-59 -64v-317h-275z" />
<glyph unicode="l" horiz-adv-x="544" d="M135 0v1475h275v-1475h-275z" />
<glyph unicode="m" horiz-adv-x="1718" d="M135 0v999h268l7 -127h4q90 147 274 148q225 0 289 -186h6q117 186 307 186q311 0 312 -371v-649h-275v610q0 190 -147 191q-174 0 -174 -330v-471h-275v610q0 190 -147 191q-174 0 -174 -330v-471h-275z" />
<glyph unicode="n" horiz-adv-x="1167" d="M135 0v999h268l7 -127h4q111 147 297 148q340 0 340 -381v-639h-275v600q0 201 -158 201q-209 0 -208 -289v-512h-275z" />
<glyph unicode="o" horiz-adv-x="1150" d="M66 499.5q0 223.5 139 372t370.5 148.5t370.5 -148.5t139 -372t-139 -371.5t-370.5 -148t-370.5 148t-139 371.5zM354 499.5q0 -141.5 55.5 -225.5t166 -84t166 84t55.5 225.5t-55.5 225.5t-166 84t-166 -84t-55.5 -225.5z" />
<glyph unicode="p" horiz-adv-x="1234" d="M135 -401v1400h268l7 -116h4q74 74 146.5 105.5t178.5 31.5q201 0 315.5 -140.5t114.5 -361.5q0 -229 -122.5 -383.5t-319.5 -154.5q-104 0 -176 31.5t-137 105.5h-4v-518h-275zM410 477q0 -133 61 -210t168 -77q119 0 180.5 83t61.5 228.5t-62.5 226.5t-183.5 81 q-109 0 -167 -78t-58 -209v-45z" />
<glyph unicode="q" horiz-adv-x="1234" d="M66 481q0 229 122.5 384t319.5 155q102 0 174 -33t139 -104h4l6 116h269v-1400h-275v518h-4q-74 -74 -147.5 -105.5t-177.5 -31.5q-201 0 -315.5 140t-114.5 361zM354 497.5q0 -145.5 62.5 -226.5t183.5 -81q109 0 167 78t58 209v45q0 133 -61.5 210t-167.5 77 q-119 0 -180.5 -83t-61.5 -228.5z" />
<glyph unicode="r" horiz-adv-x="733" d="M135 0v999h268l7 -178h4q43 84 129 138.5t184 60.5l-6 -266q-135 -6 -211 -60q-51 -37 -75.5 -106.5t-24.5 -210.5v-377h-275z" />
<glyph unicode="s" horiz-adv-x="851" d="M61 33l29 207q135 -49 264 -50q145 0 146 86q0 72 -119 107q-135 39 -203.5 109.5t-68.5 203.5q0 143 109.5 233.5t275.5 90.5q135 0 247 -45l-28 -205q-82 39 -193 39q-51 0 -89 -23.5t-38 -64.5q0 -78 96 -105q162 -45 228.5 -111.5t66.5 -191.5q0 -154 -126 -243.5 t-300 -89.5q-158 0 -297 53z" />
<glyph unicode="t" horiz-adv-x="829" d="M47 788v211h170v232h275v-232h253v-211h-253v-440q0 -158 139 -158q51 0 110 17l29 -201q-88 -27 -229 -26q-143 0 -233.5 74.5t-90.5 234.5v499h-170z" />
<glyph unicode="u" horiz-adv-x="1167" d="M117 360v639h274v-600q0 -201 158 -200q209 0 209 288v512h274v-999h-268l-6 127h-4q-111 -147 -297 -147q-340 -1 -340 380z" />
<glyph unicode="v" horiz-adv-x="1044" d="M-2 999h295l158 -462q53 -158 79 -297h7q25 127 81 297l158 462h277l-385 -999h-285z" />
<glyph unicode="w" horiz-adv-x="1597" d="M6 999h295l131 -469q53 -193 62 -311h6q4 121 53 307l119 473h278l119 -471q47 -188 55 -309h6q4 119 60 309l131 471h276l-342 -999h-282l-119 463q-41 172 -49 299h-6q-8 -141 -47 -297l-119 -465h-285z" />
<glyph unicode="x" horiz-adv-x="1030" d="M-8 0l362 504v6l-356 489h336l174 -294h6l176 294h316l-347 -475v-6l373 -518h-336l-192 324h-6l-191 -324h-315z" />
<glyph unicode="y" horiz-adv-x="1044" d="M-2 999h295l158 -462q53 -158 79 -297h7q25 127 81 297l158 462h277l-359 -927q-102 -266 -229 -372t-332 -122l-29 209q111 14 171.5 52t93.5 114l16 43z" />
<glyph unicode="z" horiz-adv-x="937" d="M63 0v203l474 581v4h-418v211h743v-208l-467 -576v-4h484v-211h-816z" />
<glyph unicode="{" horiz-adv-x="722" d="M125 528v201q94 4 135 37q33 26 33 93q0 17 -2 36l-29 231q-3 24 -2 46q0 133 95 202q112 80 317 80v-201q-92 0 -138 -40q-39 -34 -40 -92q0 -10 2 -21l28 -242q2 -16 2 -30q0 -78 -46 -128q-54 -59 -154 -69v-4q100 -10 154 -70q46 -50 46 -127q0 -15 -2 -31l-28 -241 l-2 -22q0 -58 40 -92q46 -40 138 -40v-201q-205 0 -317 80q-96 69 -95 202q0 22 2 46l29 231q2 19 2 36q0 67 -33 94q-41 32 -135 36z" />
<glyph unicode="|" horiz-adv-x="565" d="M168 -512v2048h229v-2048h-229z" />
<glyph unicode="}" horiz-adv-x="722" d="M51 4q92 0 138 40q39 34 40 92q0 10 -2 22l-28 241q-2 18 -3 34q0 73 46 123q55 60 155 71v4q-100 10 -155 70q-45 49 -46 123q0 16 3 34l28 242l2 21q0 58 -40 92q-46 40 -138 40v201q205 0 317 -80q96 -69 95 -202q0 -22 -2 -46l-29 -231q-2 -19 -2 -36q0 -67 33 -93 q41 -33 135 -37v-201q-94 -4 -135 -36q-33 -26 -33 -94q0 -17 2 -36l29 -231q3 -24 2 -46q0 -133 -95 -202q-112 -80 -317 -80v201z" />
<glyph unicode="~" horiz-adv-x="1544" d="M104 348q0 184 88.5 285.5t249.5 101.5q80 0 157 -23.5t220 -88.5q178 -82 231.5 -101.5t92.5 -19.5q96 0 96 186h201q0 -186 -88 -286.5t-250 -100.5q-80 0 -157 23.5t-220 89.5q-178 82 -231.5 101.5t-92.5 19.5q-96 0 -96 -187h-201z" />
<glyph unicode="&#xa5;" d="M66 1348h303l114 -277q68 -164 95 -287h6q20 98 92 287l115 277h286l-272 -543h203v-168h-295v-111h295v-168h-295v-358h-275v358h-295v168h295v111h-295v168h193z" />
<glyph unicode="&#xaa;" horiz-adv-x="1054" d="M61 311q0 164 133.5 250t335.5 86q43 0 129 -10v18q0 74 -52 114t-146 40q-125 0 -262 -59l-29 204q166 66 350 66q207 0 310.5 -93t103.5 -263v-664h-268l-7 125h-4q-90 -145 -272 -145q-135 0 -228.5 93t-93.5 238zM348 332q0 -63 36 -102.5t99 -39.5q176 0 176 267v16 q-57 8 -110 8q-201 1 -201 -149z" />
<glyph unicode="&#xad;" horiz-adv-x="802" d="M119 424v201h565v-201h-565z" />
<glyph unicode="&#xb2;" d="M119 0v215l231 236q244 250 314.5 342t70.5 178q0 80 -57 129t-164 49q-129 0 -289 -64l-28 218q184 66 372 65q207 0 334 -101.5t127 -265.5q0 -147 -73.5 -261.5t-272.5 -305.5l-217 -211v-4h567v-219h-915z" />
<glyph unicode="&#xb3;" d="M90 59l29 217q168 -78 340 -77q119 0 197.5 45t78.5 133q0 174 -311 190v213q123 2 196.5 53.5t73.5 139.5q0 82 -62.5 129t-158.5 47q-137 0 -270 -55l-27 213q201 61 365 61q213 0 330.5 -86t117.5 -233q0 -131 -88 -214t-217 -110v-4q156 -25 251 -109t95 -219 q0 -190 -166 -301.5t-399 -111.5q-228 -1 -375 79z" />
<glyph unicode="&#xb9;" d="M207 1151l455 197h137v-1348h-275v1034l-291 -96z" />
<glyph unicode="&#xba;" horiz-adv-x="1150" d="M66 499.5q0 223.5 139 372t370.5 148.5t370.5 -148.5t139 -372t-139 -371.5t-370.5 -148t-370.5 148t-139 371.5zM354 499.5q0 -141.5 55.5 -225.5t166 -84t166 84t55.5 225.5t-55.5 225.5t-166 84t-166 -84t-55.5 -225.5z" />
<glyph unicode="&#xc0;" horiz-adv-x="1294" d="M29 0l479 1389h283l479 -1389h-291l-129 408h-420l-127 -408h-274zM295 1905h190q43 0 68 -41q68 -119 201 -324l-209 -10q-123 154 -250 375zM494 627h292q-92 289 -143 508h-6q-51 -219 -143 -508z" />
<glyph unicode="&#xc2;" horiz-adv-x="1294" d="M29 0l479 1389h283l479 -1389h-291l-129 408h-420l-127 -408h-274zM160 1530l360 799h256l361 -799h-252l-234 557h-6l-235 -557h-250zM494 627h292q-92 289 -143 508h-6q-51 -219 -143 -508z" />
<glyph unicode="&#xc3;" horiz-adv-x="1294" d="M-18 1577q0 184 88 285.5t249 101.5q80 0 157 -23.5t220 -89.5q178 -82 231.5 -101t92.5 -19q96 0 96 186h201q0 -186 -88 -286.5t-250 -100.5q-80 0 -157 23.5t-220 88.5q-178 82 -231.5 101.5t-91.5 19.5q-96 0 -97 -186h-200zM29 0l479 1389h283l479 -1389h-291 l-129 408h-420l-127 -408h-274zM494 627h292q-92 289 -143 508h-6q-51 -219 -143 -508z" />
<glyph unicode="&#xc4;" horiz-adv-x="1294" d="M29 0l479 1389h283l479 -1389h-291l-129 408h-420l-127 -408h-274zM307 1591.5q0 59.5 41 99.5t98.5 40t98.5 -41t41 -98.5t-41 -98.5t-98.5 -41t-98.5 40t-41 99.5zM494 627h292q-92 289 -143 508h-6q-51 -219 -143 -508zM721 1591.5q0 59.5 41 99.5t98.5 40t98 -40 t40.5 -99.5t-40.5 -99.5t-98 -40t-98.5 40t-41 99.5z" />
<glyph unicode="&#xc5;" horiz-adv-x="1294" d="M29 0l479 1389h283l479 -1389h-291l-129 408h-420l-127 -408h-274zM436 1624q0 80 62.5 132t152.5 52t152.5 -52t62.5 -132t-62.5 -132t-152.5 -52t-152.5 52t-62.5 132zM494 627h292q-92 289 -143 508h-6q-51 -219 -143 -508zM569 1624q0 -39 23.5 -63.5t58.5 -24.5 t58.5 24.5t23.5 63.5t-23.5 63.5t-58.5 24.5t-58.5 -24.5t-23.5 -63.5z" />
<glyph unicode="&#xc6;" horiz-adv-x="1714" d="M-33 0l649 1389h1008v-220h-645l59 -342h543v-219h-508l72 -389h518v-219h-758l-67 408h-408l-180 -408h-283zM510 627h299l-80 503h-6z" />
<glyph unicode="&#xc8;" horiz-adv-x="1019" d="M135 0v1389h809v-220h-534v-342h464v-219h-464v-389h553v-219h-828zM186 1905h191q43 0 67 -41q68 -119 201 -324l-209 -10q-123 154 -250 375z" />
<glyph unicode="&#xca;" horiz-adv-x="1019" d="M51 1530l361 799h256l360 -799h-252l-233 557h-6l-236 -557h-250zM135 0v1389h809v-220h-534v-342h464v-219h-464v-389h553v-219h-828z" />
<glyph unicode="&#xcb;" horiz-adv-x="1019" d="M135 0v1389h809v-220h-534v-342h464v-219h-464v-389h553v-219h-828zM221 1591.5q0 59.5 41 99.5t98.5 40t98.5 -40t41 -99.5t-41 -99.5t-98.5 -40t-98.5 40t-41 99.5zM635 1591.5q0 59.5 41 99.5t98 40t98 -40t41 -99.5t-41 -99.5t-98 -40t-98 40t-41 99.5z" />
<glyph unicode="&#xcc;" horiz-adv-x="544" d="M-82 1905h191q43 0 67 -41q68 -119 201 -324l-209 -10q-123 154 -250 375zM135 0v1389h275v-1389h-275z" />
<glyph unicode="&#xce;" horiz-adv-x="544" d="M-217 1530l360 799h256l361 -799h-252l-234 557h-6l-235 -557h-250zM135 0v1389h275v-1389h-275z" />
<glyph unicode="&#xcf;" horiz-adv-x="544" d="M-74 1591.5q0 59.5 41 99.5t98.5 40t98.5 -40t41 -99.5t-41 -99.5t-98.5 -40t-98.5 40t-41 99.5zM135 0h275v1389h-275v-1389zM340 1591.5q0 59.5 41 99.5t98.5 40t98 -40t40.5 -99.5t-40.5 -99.5t-98 -40t-98.5 40t-41 99.5z" />
<glyph unicode="&#xd1;" horiz-adv-x="1466" d="M66 1577q0 184 88 285.5t249 101.5q80 0 157 -23.5t220 -89.5q178 -82 231.5 -101t92.5 -19q96 0 96 186h201q0 -186 -88 -286.5t-250 -100.5q-80 0 -157 23.5t-220 88.5q-178 82 -231.5 101.5t-92.5 19.5q-96 0 -96 -186h-200zM129 0v1389h389l391 -734 q96 -176 178 -387h7q-14 182 -15 387v734h258v-1389h-387l-405 754q-80 147 -166 364h-6q14 -252 14 -364v-754h-258z" />
<glyph unicode="&#xd2;" horiz-adv-x="1540" d="M57 694q0 305 202 509t511 204t511 -204t202 -509t-202 -509.5t-511 -204.5t-511 204.5t-202 509.5zM358 694.5q0 -237.5 115 -366.5t297 -129t297 129t115 366.5t-114 365.5t-298 128t-298 -128t-114 -365.5zM416 1905h190q43 0 68 -41q68 -119 200 -324l-208 -10 q-123 154 -250 375z" />
<glyph unicode="&#xd4;" horiz-adv-x="1540" d="M57 694q0 305 202 509t511 204t511 -204t202 -509t-202 -509.5t-511 -204.5t-511 204.5t-202 509.5zM283 1530l360 799h256l361 -799h-252l-234 557h-6l-236 -557h-249zM358 694.5q0 -237.5 115 -366.5t297 -129t297 129t115 366.5t-114 365.5t-298 128t-298 -128 t-114 -365.5z" />
<glyph unicode="&#xd5;" horiz-adv-x="1540" d="M57 694q0 305 202 509t511 204t511 -204t202 -509t-202 -509.5t-511 -204.5t-511 204.5t-202 509.5zM102 1577q0 184 88.5 285.5t249.5 101.5q80 0 157 -23.5t220 -89.5q178 -82 231.5 -101t92.5 -19q96 0 96 186h201q0 -186 -88 -286.5t-250 -100.5q-80 0 -157 23.5 t-220 88.5q-178 82 -231.5 101.5t-92.5 19.5q-96 0 -96 -186h-201zM358 694.5q0 -237.5 115 -366.5t297 -129t297 129t115 366.5t-114 365.5t-298 128t-298 -128t-114 -365.5z" />
<glyph unicode="&#xd6;" horiz-adv-x="1540" d="M57 694q0 305 202 509t511 204t511 -204t202 -509t-202 -509.5t-511 -204.5t-511 204.5t-202 509.5zM358 694.5q0 -237.5 115 -366.5t297 -129t297 129t115 366.5t-114 365.5t-298 128t-298 -128t-114 -365.5zM424 1591.5q0 59.5 40 99.5t99.5 40t99 -40t39.5 -99.5 t-39.5 -99.5t-99 -40t-99.5 40t-40 99.5zM838 1591.5q0 59.5 40 99.5t99 40t99 -40t40 -99.5t-40 -99.5t-99 -40t-99 40t-40 99.5z" />
<glyph unicode="&#xd8;" horiz-adv-x="1540" d="M57 694q0 305 202 509t511 204q193 0 356 -88l127 160l177 -140l-127 -157q180 -201 180 -488q0 -305 -202 -509.5t-511 -204.5q-190 0 -360 90l-127 -160l-177 139l130 160q-179 200 -179 485zM358 694q0 -150 48 -268h6l567 707v6q-82 49 -209 49q-184 0 -298 -128 t-114 -366zM559 252q96 -53 211 -53q182 0 297 129t115 366q0 156 -52 269h-6l-565 -705v-6z" />
<glyph unicode="&#xd9;" horiz-adv-x="1316" d="M129 438v951h274v-930q0 -127 75 -194.5t186 -67.5q117 0 194.5 64.5t77.5 197.5v930h258v-912q0 -238 -151.5 -367.5t-383.5 -129.5q-227 0 -378.5 123.5t-151.5 334.5zM307 1905h191q43 0 67 -41q68 -119 201 -324l-209 -10q-123 154 -250 375z" />
<glyph unicode="&#xdb;" horiz-adv-x="1316" d="M129 438v951h274v-930q0 -127 75 -194.5t186 -67.5q117 0 194.5 64.5t77.5 197.5v930h258v-912q0 -238 -151.5 -367.5t-383.5 -129.5q-227 0 -378.5 123.5t-151.5 334.5zM172 1530l360 799h256l361 -799h-252l-233 557h-7l-235 -557h-250z" />
<glyph unicode="&#xdc;" horiz-adv-x="1316" d="M129 438v951h274v-930q0 -127 75 -194.5t186 -67.5q117 0 194.5 64.5t77.5 197.5v930h258v-912q0 -238 -151.5 -367.5t-383.5 -129.5q-227 0 -378.5 123.5t-151.5 334.5zM324 1591.5q0 59.5 41 99.5t98 40t98 -40t41 -99.5t-41 -99.5t-98 -40t-98 40t-41 99.5z M737 1591.5q0 59.5 41 99.5t98.5 40t98.5 -40t41 -99.5t-41 -99.5t-98.5 -40t-98.5 40t-41 99.5z" />
<glyph unicode="&#xe0;" horiz-adv-x="1054" d="M61 311q0 164 133.5 250t335.5 86q43 0 129 -10v18q0 74 -52 114t-146 40q-125 0 -262 -59l-29 204q166 66 350 66q207 0 310.5 -93t103.5 -263v-664h-268l-7 125h-4q-90 -145 -272 -145q-135 0 -228.5 93t-93.5 238zM166 1518h190q43 0 68 -41q68 -119 201 -324 l-209 -10q-123 154 -250 375zM348 332q0 -63 36 -102.5t99 -39.5q176 0 176 267v16q-57 8 -110 8q-201 1 -201 -149z" />
<glyph unicode="&#xe2;" horiz-adv-x="1054" d="M33 1143l360 799h256l361 -799h-252l-234 557h-6l-235 -557h-250zM61 311q0 164 133.5 250t335.5 86q43 0 129 -10v18q0 74 -52 114t-146 40q-125 0 -262 -59l-29 204q166 66 350 66q207 0 310.5 -93t103.5 -263v-664h-268l-7 125h-4q-90 -145 -272 -145 q-135 0 -228.5 93t-93.5 238zM348 332q0 -63 36 -102.5t99 -39.5q176 0 176 267v16q-57 8 -110 8q-201 1 -201 -149z" />
<glyph unicode="&#xe3;" horiz-adv-x="1054" d="M-147 1190q0 184 88 285.5t249 101.5q80 0 157 -23.5t220 -89.5q178 -82 231.5 -101.5t92.5 -19.5q96 0 96 187h201q0 -186 -88 -286.5t-250 -100.5q-80 0 -157 23.5t-220 88.5q-178 82 -231.5 101.5t-91.5 19.5q-96 0 -97 -186h-200zM61 311q0 164 133.5 250t335.5 86 q43 0 129 -10v18q0 74 -52 114t-146 40q-125 0 -262 -59l-29 204q166 66 350 66q207 0 310.5 -93t103.5 -263v-664h-268l-7 125h-4q-90 -145 -272 -145q-135 0 -228.5 93t-93.5 238zM348 332q0 -63 36 -102.5t99 -39.5q176 0 176 267v16q-57 8 -110 8q-201 1 -201 -149z" />
<glyph unicode="&#xe4;" horiz-adv-x="1054" d="M61 311q0 164 133.5 250t335.5 86q43 0 129 -10v18q0 74 -52 114t-146 40q-125 0 -262 -59l-29 204q166 66 350 66q207 0 310.5 -93t103.5 -263v-664h-268l-7 125h-4q-90 -145 -272 -145q-135 0 -228.5 93t-93.5 238zM195 1243.5q0 59.5 39.5 99t99.5 39.5q57 0 98 -41 t41 -98t-41 -98t-98 -41q-59 0 -99 40t-40 99.5zM348 332q0 -63 36 -102.5t99 -39.5q176 0 176 267v16q-57 8 -110 8q-201 1 -201 -149zM608 1243.5q0 59.5 40 99t99.5 39.5t99.5 -39.5t40 -99t-40 -99.5t-99.5 -40t-99.5 40t-40 99.5z" />
<glyph unicode="&#xe5;" horiz-adv-x="1054" d="M61 311q0 164 133.5 250t335.5 86q43 0 129 -10v18q0 74 -52 114t-146 40q-125 0 -262 -59l-29 204q166 66 350 66q207 0 310.5 -93t103.5 -263v-664h-268l-7 125h-4q-90 -145 -272 -145q-135 0 -228.5 93t-93.5 238zM340 1276q0 80 62.5 132t152.5 52t152.5 -52 t62.5 -132t-62.5 -132t-152.5 -52t-152.5 52t-62.5 132zM348 332q0 -63 36 -102.5t99 -39.5q176 0 176 267v16q-57 8 -110 8q-201 1 -201 -149zM473 1276q0 -39 23.5 -63.5t58.5 -24.5t58.5 24.5t23.5 63.5t-23.5 63.5t-58.5 24.5t-58.5 -24.5t-23.5 -63.5z" />
<glyph unicode="&#xe6;" horiz-adv-x="1644" d="M61 309q0 164 137.5 251t340.5 87q43 0 129 -10v18q0 74 -52.5 114t-146.5 40q-125 0 -262 -59l-29 204q166 66 350 66q244 0 320 -127h6q125 127 320 127q188 0 296.5 -133t108.5 -328q0 -82 -12 -137h-625v-33q33 -199 279 -199q115 0 260 60l28 -205 q-147 -66 -323 -65q-281 0 -426 178h-4q-135 -178 -353 -178q-137 0 -239.5 93t-102.5 236zM348 330q0 -61 40 -100.5t104 -39.5q82 0 129 67t47 200v16q-57 8 -111 8q-92 0 -150.5 -37.5t-58.5 -113.5zM948 610h367q-4 86 -45 142.5t-125 56.5q-78 0 -129.5 -54.5 t-67.5 -144.5z" />
<glyph unicode="&#xe8;" horiz-adv-x="1069" d="M66 473q0 248 141 397.5t377 149.5q190 0 301.5 -133t111.5 -328q0 -82 -12 -137h-649q8 -115 82 -173.5t200 -58.5q135 0 281 60l29 -205q-147 -66 -344 -65q-238 0 -378 128.5t-140 364.5zM229 1518h191q43 0 67 -41q68 -119 201 -324l-209 -10q-123 154 -250 375z M346 610h387q-4 84 -49 141.5t-129 57.5q-80 0 -136.5 -55.5t-72.5 -143.5z" />
<glyph unicode="&#xea;" horiz-adv-x="1069" d="M66 473q0 248 141 397.5t377 149.5q190 0 301.5 -133t111.5 -328q0 -82 -12 -137h-649q8 -115 82 -173.5t200 -58.5q135 0 281 60l29 -205q-147 -66 -344 -65q-238 0 -378 128.5t-140 364.5zM94 1143l361 799h256l360 -799h-252l-233 557h-6l-236 -557h-250zM346 610h387 q-4 84 -49 141.5t-129 57.5q-80 0 -136.5 -55.5t-72.5 -143.5z" />
<glyph unicode="&#xeb;" horiz-adv-x="1069" d="M66 473q0 248 141 397.5t377 149.5q190 0 301.5 -133t111.5 -328q0 -82 -12 -137h-649q8 -115 82 -173.5t200 -58.5q135 0 281 60l29 -205q-147 -66 -344 -65q-238 0 -378 128.5t-140 364.5zM203 1243.5q0 59.5 40 99t99 39.5t99 -39.5t40 -99t-40 -99.5t-99 -40t-99 40 t-40 99.5zM346 610h387q-4 84 -49 141.5t-129 57.5q-80 0 -136.5 -55.5t-72.5 -143.5zM616 1243.5q0 59.5 40 99t99.5 39.5t99.5 -39.5t40 -99t-40 -99.5t-99.5 -40t-99.5 40t-40 99.5z" />
<glyph unicode="&#xec;" horiz-adv-x="544" d="M-82 1898h191q43 0 67 -40q68 -119 201 -324l-209 -10q-123 153 -250 374zM115 1243.5q0 65.5 46 111.5t111 46q63 0 110.5 -47t47.5 -111q0 -66 -46 -112t-111.5 -46t-111.5 46.5t-46 112zM135 0v999h275v-999h-275z" />
<glyph unicode="&#xee;" horiz-adv-x="544" d="M-217 1524l360 798h256l361 -798h-252l-234 557h-6l-235 -557h-250zM115 1243.5q0 65.5 46 111.5t111 46q63 0 110.5 -47t47.5 -111q0 -66 -46 -112t-111.5 -46t-111.5 46.5t-46 112zM135 0v999h275v-999h-275z" />
<glyph unicode="&#xef;" horiz-adv-x="495" d="M-98 1243.5q0 59.5 41 99t98 39.5t98 -41t41 -98t-41 -98t-98 -41t-98 40t-41 99.5zM111 0v999h274v-999h-274zM315 1243.5q0 59.5 41 99t98.5 39.5t98.5 -39.5t41 -99t-41 -99.5t-98.5 -40t-98.5 40t-41 99.5z" />
<glyph unicode="&#xf1;" horiz-adv-x="1167" d="M-76 1190q0 184 88 285.5t250 101.5q80 0 157 -23.5t220 -89.5q178 -82 231.5 -101.5t92.5 -19.5q96 0 96 187h201q0 -186 -88.5 -286.5t-249.5 -100.5q-80 0 -157 23.5t-220 88.5q-178 82 -231.5 101.5t-92.5 19.5q-96 0 -96 -186h-201zM135 0v999h268l7 -127h4 q111 147 297 148q340 0 340 -381v-639h-275v600q0 201 -158 201q-209 0 -208 -289v-512h-275z" />
<glyph unicode="&#xf2;" horiz-adv-x="1150" d="M66 499.5q0 223.5 139 372t370.5 148.5t370.5 -148.5t139 -372t-139 -371.5t-370.5 -148t-370.5 148t-139 371.5zM221 1518h191q43 0 67 -41q68 -119 201 -324l-209 -10q-123 154 -250 375zM354 499.5q0 -141.5 55.5 -225.5t166 -84t166 84t55.5 225.5t-55.5 225.5 t-166 84t-166 -84t-55.5 -225.5z" />
<glyph unicode="&#xf4;" horiz-adv-x="1150" d="M66 499.5q0 223.5 139 372t370.5 148.5t370.5 -148.5t139 -372t-139 -371.5t-370.5 -148t-370.5 148t-139 371.5zM86 1143l360 799h256l361 -799h-252l-233 557h-7l-235 -557h-250zM354 499.5q0 -141.5 55.5 -225.5t166 -84t166 84t55.5 225.5t-55.5 225.5t-166 84 t-166 -84t-55.5 -225.5z" />
<glyph unicode="&#xf5;" horiz-adv-x="1150" d="M-92 1190q0 184 88 285.5t250 101.5q80 0 156.5 -23.5t220.5 -89.5q178 -82 231 -101.5t92 -19.5q96 0 96 187h201q0 -186 -88 -286.5t-250 -100.5q-80 0 -156.5 23.5t-220.5 88.5q-178 82 -231 101.5t-92 19.5q-96 0 -96 -186h-201zM66 499.5q0 223.5 139 372 t370.5 148.5t370.5 -148.5t139 -372t-139 -371.5t-370.5 -148t-370.5 148t-139 371.5zM354 499.5q0 -141.5 55.5 -225.5t166 -84t166 84t55.5 225.5t-55.5 225.5t-166 84t-166 -84t-55.5 -225.5z" />
<glyph unicode="&#xf6;" horiz-adv-x="1150" d="M66 499.5q0 223.5 139 372t370.5 148.5t370.5 -148.5t139 -372t-139 -371.5t-370.5 -148t-370.5 148t-139 371.5zM229 1243.5q0 59.5 41 99t98.5 39.5t98.5 -41t41 -98t-41 -98t-98.5 -41t-98.5 40t-41 99.5zM354 499.5q0 -141.5 55.5 -225.5t166 -84t166 84t55.5 225.5 t-55.5 225.5t-166 84t-166 -84t-55.5 -225.5zM643 1243.5q0 59.5 41 99t98.5 39.5t98.5 -39.5t41 -99t-41 -99.5t-98.5 -40t-98.5 40t-41 99.5z" />
<glyph unicode="&#xf8;" horiz-adv-x="1150" d="M66 500q0 223 139 371.5t370 148.5q96 0 205 -43l78 117l162 -103l-78 -114q143 -158 143 -377q0 -223 -139 -371.5t-371 -148.5q-113 0 -206 40l-84 -122l-158 104l84 123q-145 156 -145 375zM354 500q0 -66 17 -127h6l278 413v7q-29 16 -80 16q-111 0 -166 -84 t-55 -225zM498 203q35 -12 77 -13q111 0 166.5 84t55.5 226q0 74 -13 127h-6l-280 -418v-6z" />
<glyph unicode="&#xf9;" horiz-adv-x="1167" d="M117 360v639h274v-600q0 -201 158 -200q209 0 209 288v512h274v-999h-268l-6 127h-4q-111 -147 -297 -147q-340 -1 -340 380zM219 1518h191q43 0 67 -41q68 -119 201 -324l-209 -10q-123 154 -250 375z" />
<glyph unicode="&#xfb;" horiz-adv-x="1167" d="M86 1143l360 799h256l361 -799h-252l-233 557h-7l-235 -557h-250zM117 360v639h274v-600q0 -201 158 -200q209 0 209 288v512h274v-999h-268l-6 127h-4q-111 -147 -297 -147q-340 -1 -340 380z" />
<glyph unicode="&#xfc;" horiz-adv-x="1167" d="M117 360v639h274v-600q0 -201 158 -200q209 0 209 288v512h274v-999h-268l-6 127h-4q-111 -147 -297 -147q-340 -1 -340 380zM233 1243.5q0 59.5 41 99t98.5 39.5t98.5 -41t41 -98t-41 -98t-98.5 -41t-98.5 40t-41 99.5zM647 1243.5q0 59.5 41 99t98.5 39.5t98.5 -39.5 t41 -99t-41 -99.5t-98.5 -40t-98.5 40t-41 99.5z" />
<glyph unicode="&#xff;" horiz-adv-x="1044" d="M-2 999h295l158 -462q53 -158 79 -297h7q25 127 81 297l158 462h277l-359 -927q-102 -266 -229 -372t-332 -122l-29 209q111 14 171.5 52t93.5 114l16 43zM201 1243.5q0 59.5 41 99t98 39.5t98 -39.5t41 -99t-41 -99.5t-98 -40t-98 40t-41 99.5zM614 1243.5q0 59.5 41 99 t98.5 39.5t98.5 -39.5t41 -99t-41 -99.5t-98.5 -40t-98.5 40t-41 99.5z" />
<glyph unicode="&#x152;" horiz-adv-x="2560" d="M57 694q0 305 202 509t511 204t511 -204t202 -509t-202 -509.5t-511 -204.5t-511 204.5t-202 509.5zM358 694.5q0 -237.5 115 -366.5t297 -129t297 129t115 366.5t-114 365.5t-298 128t-298 -128t-114 -365.5zM1675 0v1389h809v-220h-534v-342h465v-219h-465v-389h553 v-219h-828z" />
<glyph unicode="&#x153;" horiz-adv-x="2220" d="M66 499.5q0 223.5 139 372t370.5 148.5t370.5 -148.5t139 -372t-139 -371.5t-370.5 -148t-370.5 148t-139 371.5zM354 499.5q0 -141.5 55.5 -225.5t166 -84t166 84t55.5 225.5t-55.5 225.5t-166 84t-166 -84t-55.5 -225.5zM1217 473q0 248 141 397.5t377 149.5 q190 0 301.5 -133t111.5 -328q0 -82 -12 -137h-649q8 -115 81.5 -173.5t200.5 -58.5q135 0 281 60l29 -205q-147 -66 -344 -65q-238 0 -378 128.5t-140 364.5zM1497 610h387q-4 84 -49 141.5t-129 57.5q-80 0 -136.5 -55.5t-72.5 -143.5z" />
<glyph unicode="&#x178;" horiz-adv-x="1146" d="M-8 1389h315l279 -562h4l280 562h295l-444 -793v-596h-275v575zM242 1591.5q0 59.5 41 99.5t98 40t98 -41t41 -98.5t-41 -98.5t-98 -41t-98 40t-41 99.5zM655 1591.5q0 59.5 41 99.5t98.5 40t98.5 -40t41 -99.5t-41 -99.5t-98.5 -40t-98.5 40t-41 99.5z" />
<glyph unicode="&#x2c6;" horiz-adv-x="1165" d="M94 582l361 798h256l360 -798h-252l-233 557h-6l-236 -557h-250z" />
<glyph unicode="&#x2dc;" horiz-adv-x="401" d="M-668 170q0 184 88 285.5t250 101.5q80 0 157 -23.5t220 -89.5q178 -82 231.5 -101t92.5 -19q96 0 96 186h201q0 -186 -88 -286.5t-250 -100.5q-80 0 -157 23.5t-220 89.5q-178 82 -231.5 101t-92.5 19q-96 0 -96 -186h-201z" />
<glyph unicode="&#x2013;" horiz-adv-x="1024" d="M119 424v201h786v-201h-786z" />
<glyph unicode="&#x2014;" horiz-adv-x="2048" d="M119 424v201h1810v-201h-1810z" />
<glyph unicode="&#x2018;" horiz-adv-x="626" d="M90 848q88 268 215 567l244 27q-88 -274 -141 -494q-25 -100 -148 -100h-170z" />
<glyph unicode="&#x2019;" horiz-adv-x="626" d="M78 848q92 287 141 493q25 100 148 101h170q-88 -268 -215 -568z" />
<glyph unicode="&#x201c;" horiz-adv-x="1067" d="M90 848q88 268 215 567l244 27q-88 -274 -141 -494q-25 -100 -148 -100h-170zM530 848q88 268 215 567l244 27q-88 -274 -141 -494q-25 -100 -148 -100h-170z" />
<glyph unicode="&#x201d;" horiz-adv-x="1067" d="M78 848q92 287 141 493q25 100 148 101h170q-88 -268 -215 -568zM518 848q92 287 141 493q25 100 148 101h170q-88 -268 -215 -568z" />
<glyph unicode="&#x2026;" horiz-adv-x="1536" d="M94 141.5q0 67.5 47 114.5t115 47t115 -47t47 -114.5t-47 -114.5t-115 -47t-115 47t-47 114.5zM606 141.5q0 67.5 47 114.5t115 47t115 -47t47 -114.5t-47 -114.5t-115 -47t-115 47t-47 114.5zM1118 141.5q0 67.5 47 114.5t115 47t115 -47t47 -114.5t-47 -114.5t-115 -47 t-115 47t-47 114.5z" />
<glyph unicode="&#x2039;" horiz-adv-x="962" d="M63 412v258l791 401v-258l-571 -268v-6l571 -271v-258z" />
<glyph unicode="&#x203a;" horiz-adv-x="962" d="M109 10v258l571 271v6l-571 268v258l790 -401v-258z" />
<glyph unicode="&#x2122;" horiz-adv-x="2951" d="M31 1169v220h1147v-220h-439v-1169h-274v1169h-434zM1337 0l47 1386h316l242 -669q72 -203 129 -447h6q57 244 129 447l245 669h316l49 -1386h-274l-17 717v40q0 158 15 287h-7q-27 -135 -92 -327l-233 -676h-287l-227 676q-70 193 -90 319h-7q14 -112 14 -235 q0 -41 -1 -84l-15 -717h-258z" />
<glyph unicode="&#xe000;" horiz-adv-x="1000" d="M0 1000h1000v-1000h-1000v1000z" />
<glyph unicode="&#xfb01;" horiz-adv-x="1312" d="M47 788v211h166v23q0 221 127 347t336 126q109 0 176 -29l-29 -200q-47 18 -110 18q-102 0 -164 -60.5t-62 -183.5v-41h246v-211h-246v-788h-274v788h-166zM883 1243.5q0 65.5 46 111.5t111 46q63 0 110.5 -47t47.5 -111q0 -66 -46 -112t-111.5 -46t-111.5 46.5t-46 112z M903 0v999h275v-999h-275z" />
<glyph unicode="&#xfb02;" horiz-adv-x="1312" d="M47 788v211h166v23q0 221 127 347t336 126q109 0 176 -29l-29 -200q-47 18 -110 18q-102 0 -164 -60.5t-62 -183.5v-41h246v-211h-246v-788h-274v788h-166zM903 0v1475h275v-1475h-275z" />
<glyph unicode="&#xfb03;" horiz-adv-x="2080" d="M47 788v211h166v23q0 221 127 347t336 126q109 0 176 -29l-29 -200q-47 18 -110 18q-102 0 -164 -60.5t-62 -183.5v-41h246v-211h-246v-788h-274v788h-166zM815 788v211h166v23q0 221 127 347t336 126q109 0 176 -29l-29 -200q-47 18 -110 18q-102 0 -164 -60.5 t-62 -183.5v-41h246v-211h-246v-788h-274v788h-166zM1651 1243.5q0 65.5 46 111.5t111 46q63 0 110.5 -47t47.5 -111q0 -66 -46 -112t-111.5 -46t-111.5 46.5t-46 112zM1671 0v999h275v-999h-275z" />
<glyph unicode="&#xfb04;" horiz-adv-x="2080" d="M47 788v211h166v23q0 221 127 347t336 126q109 0 176 -29l-29 -200q-47 18 -110 18q-102 0 -164 -60.5t-62 -183.5v-41h246v-211h-246v-788h-274v788h-166zM815 788v211h166v23q0 221 127 347t336 126q109 0 176 -29l-29 -200q-47 18 -110 18q-102 0 -164 -60.5 t-62 -183.5v-41h246v-211h-246v-788h-274v788h-166zM1671 0v1475h275v-1475h-275z" />
</font>
</defs>
</svg>
